<svg xmlns="http://www.w3.org/2000/svg" xmlns:xlink="http://www.w3.org/1999/xlink" viewBox="0 0 900 900"><defs><style>.cls-1{fill:#231f20;}.cls-2{fill:url(#linear-gradient);}.cls-3{fill:url(#linear-gradient-2);}.cls-4,.cls-5{fill:#fff;}.cls-5{stroke:#fff;stroke-miterlimit:10;}</style><linearGradient id="linear-gradient" x1="3123.65" y1="909.07" x2="3422.54" y2="553.39" gradientTransform="translate(1298.84 -2836.37) rotate(90)" gradientUnits="userSpaceOnUse"><stop offset="0" stop-color="#f3903f"/><stop offset="0.47" stop-color="#ed683c"/><stop offset="1" stop-color="#cd4232"/></linearGradient><linearGradient id="linear-gradient-2" x1="3128.96" y1="1126.68" x2="3393.05" y2="812.4" gradientTransform="translate(1298.84 -2836.37) rotate(90)" gradientUnits="userSpaceOnUse"><stop offset="0" stop-color="#999b9e"/><stop offset="1" stop-color="#4d4d4f"/></linearGradient></defs><g id="Layer_2" data-name="Layer 2"><g id="logo_black_circ"><circle class="cls-1" cx="450" cy="450" r="450"/><path class="cls-2" d="M579.34,728.14a23.56,23.56,0,0,1-32.18-19.38L491.21,178a24.08,24.08,0,0,1,28-26.26c142,24.29,249.95,148,249.84,296.85C769,575.47,690.42,683.93,579.34,728.14Z"/><path class="cls-3" d="M354.51,707.31A24,24,0,0,1,321.68,727C211.1,682.76,133,574.56,133.12,448.17c.12-148.58,108.2-271.87,250-295.68A24,24,0,0,1,411,178.72Z"/><path class="cls-4" d="M304.47,625.4c-28.94,9.8-58.4,18.27-88.44,24.3-3.75.75-7.51,1.5-11.28,2.16s-7.55,1.29-11.34,1.88-7.59,1.08-11.39,1.62-7.61.95-11.44,1.27c-7.64.79-15.32,1.18-23,1.34a192.14,192.14,0,0,1-23.12-.84,116.33,116.33,0,0,1-22.83-4.5A54.59,54.59,0,0,1,81,641.29a36.71,36.71,0,0,1-7.17-9.72A33.82,33.82,0,0,1,70.67,620c-.72-8,1.1-15.88,3.8-23.14A113,113,0,0,1,85,576.15,197.2,197.2,0,0,1,98.49,557.5c4.85-5.94,10-11.65,15.24-17.18,2.65-2.77,5.32-5.5,8-8.18l4.13-4,4.18-3.92c-10.59,11-20.91,22.29-30.05,34.47A200,200,0,0,0,87.2,577.52a112.63,112.63,0,0,0-9.79,20.35c-2.45,7-4,14.49-3.25,21.75A30.33,30.33,0,0,0,77.06,630a32.9,32.9,0,0,0,6.48,8.55A51.12,51.12,0,0,0,102.8,648.9a112,112,0,0,0,22.06,4.25,190,190,0,0,0,22.65.92q11.37-.18,22.73-1.2c15.15-1.23,30.21-3.58,45.21-6.23s29.9-5.95,44.72-9.56l11.12-2.73,11.08-2.88Q293.44,628.49,304.47,625.4Z"/><path class="cls-4" d="M699.8,238.92c5-1.3,10-2.55,15-3.7s10-2.16,15.11-3.1,10.15-1.77,15.26-2.49c2.55-.35,5.11-.68,7.68-1s5.14-.53,7.73-.63a179.6,179.6,0,0,1,31.08,1.11A100,100,0,0,1,807,232.42a63.65,63.65,0,0,1,14.53,6.33c9.12,5.45,16.69,14.38,18.9,25.21a43.42,43.42,0,0,1,.06,16A72.53,72.53,0,0,1,836,295.14a140.78,140.78,0,0,1-15.24,27.18,268.84,268.84,0,0,1-19.29,24.25,486.35,486.35,0,0,1-44.18,43.16c-15.53,13.5-31.67,26.28-48.18,38.52s-33.39,24-50.63,35.18Q645.35,471.5,632,479.24q-6.67,3.86-13.37,7.65t-13.48,7.44q6.48-4.15,12.91-8.37L631,477.51q12.81-8.5,25.41-17.32c17.06-11.34,33.94-22.94,50.38-35.15s32.5-24.91,47.93-38.33a481,481,0,0,0,43.81-42.79,266.88,266.88,0,0,0,19-23.89,137.15,137.15,0,0,0,14.81-26.39,68.76,68.76,0,0,0,4.21-14.31,39.58,39.58,0,0,0,0-14.56,29.13,29.13,0,0,0-2.29-6.82,35,35,0,0,0-3.81-6.17,39.63,39.63,0,0,0-11-9.61,59.2,59.2,0,0,0-13.61-5.92,94.91,94.91,0,0,0-14.72-3.14,161,161,0,0,0-30.35-1c-5.07.27-10.17.39-15.26.78s-10.18.85-15.26,1.45-10.16,1.3-15.22,2.08S704.85,238,699.8,238.92Z"/><path class="cls-5" d="M630.85,486.6c-12.13,7.81-24,11-26.41,7.24s5.39-13.23,17.53-21,50.08-26.09,52.53-22.28S643,478.78,630.85,486.6Z"/><path class="cls-4" d="M441.18,48.32,360,820.5a9.42,9.42,0,0,0,16.26,7.4l67.33-72.27a9.44,9.44,0,0,1,13.83,0l66.22,72a9.42,9.42,0,0,0,16.3-7.35L459.92,48.33C458.76,37.07,442.37,37.06,441.18,48.32Z"/></g></g></svg>